 http://i26.photobucket.com/albums/c119/manojb/good.gif 
http://i26.photobucket.com/albums/c119/manojb/vlcsnap-2013-02-07-00h12m25s79.png 
http://i26.photobucket.com/albums/c119/manojb/vlcsnap-2013-02-07-00h12m32s149.png 
http://i26.photobucket.com/albums/c119/manojb/vlcsnap-2013-02-07-00h12m45s18.png 
http://i26.photobucket.com/albums/c119/manojb/vlcsnap-2013-02-07-00h12m55s121.png

Info - 
Animated Marathi Story - Kolha Aani Karkocha. Watch the classic story of the Fox and the Strok in Marathi which teaches the great moral of Tit for Tat.

Media Info - 
General
Complete name                  : Kolha Aani Karkocha - Animation - Kids [TMB].avi
Format                         : AVI
Format/Info                    : Audio Video Interleave
File size                      : 24.3 MiB
Duration                       : 4mn 41s
Overall bit rate               : 724 Kbps

Video
ID                             : 0
Format                         : MPEG-4 Visual
Format profile                 : Advanced Simple@L1
Format settings, BVOP          : 2
Format settings, QPel          : No
Format settings, GMC           : No warppoints
Format settings, Matrix        : Default (H.263)
Codec ID                       : DIVX
Codec ID/Info                  : Project Mayo
Codec ID/Hint                  : DivX 4
Duration                       : 4mn 41s
Bit rate                       : 578 Kbps
Width                          : 480 pixels
Height                         : 360 pixels
Display aspect ratio           : 4:3
Frame rate                     : 25.000 fps
Color space                    : YUV
Chroma subsampling             : 4:2:0
Bit depth                      : 8 bits
Scan type                      : Progressive
Compression mode               : Lossy
Bits/(Pixel*Frame)             : 0.134
Stream size                    : 19.4 MiB (80%)
Writing library                : Lavc54.59.100

Audio
ID                             : 1
Format                         : AC-3
Format/Info                    : Audio Coding 3
Mode extension                 : CM (complete main)
Format settings, Endianness    : Big
Codec ID                       : 2000
Duration                       : 4mn 41s
Source duration                : 4mn 41s
Bit rate mode                  : Constant
Bit rate                       : 128 Kbps
Channel(s)                     : 2 channels
Channel positions              : Front: L R
Sampling rate                  : 44.1 KHz
Bit depth                      : 16 bits
Compression mode               : Lossy
Stream size                    : 4.30 MiB (18%)
Alignment                      : Aligned on interleaves
Interleave, duration           : 35 ms (0.87 video frame)

Ripper : Manojvb

Extreme 24x7 Seeding


Enjoy TMB Release!